<svg width="58" height="20" viewBox="0 0 58 20" fill="none" xmlns="http://www.w3.org/2000/svg">
<path d="M4.13292 18.4644C4.13292 18.7223 4.09211 18.8717 4.01054 18.9396C3.92897 19.0074 3.75225 19.0346 3.48035 19.0346H0.625386C0.407865 19.0346 0.244724 18.9938 0.149559 18.9124C0.0543935 18.8309 0 18.6816 0 18.4644V1.65636C0 1.15402 0.10878 0.746694 0.326301 0.448006C0.543822 0.149318 0.978844 0 1.63141 0H8.29298C9.27183 0 10.1555 0.149318 10.944 0.448006C11.7325 0.746694 12.3987 1.15401 12.9561 1.6835C13.5135 2.213 13.9349 2.83753 14.2204 3.5571C14.5059 4.27667 14.6555 5.07767 14.6555 5.94659C14.6555 6.42177 14.5875 7.00559 14.4379 7.698C14.2884 8.39042 13.9757 9.06925 13.4999 9.73452C13.0241 10.3998 12.3171 10.9564 11.4063 11.4316C10.4954 11.9068 9.27183 12.1376 7.74918 12.1376H4.13292V18.4644ZM10.3866 6.21812C10.3866 5.96016 10.3459 5.68865 10.2779 5.38996C10.2099 5.09127 10.0603 4.80617 9.85642 4.54821C9.65249 4.29025 9.367 4.07301 9.01353 3.89652C8.66006 3.72002 8.21143 3.63854 7.66763 3.63854H4.13292V8.7977H7.69482C8.61928 8.7977 9.29903 8.55332 9.73407 8.05098C10.1691 7.54864 10.3866 6.93769 10.3866 6.21812Z" fill="white"/>
<path d="M28.2504 17.2697C28.2504 17.5005 28.2232 17.7041 28.1553 17.867C28.0873 18.03 27.9377 18.1793 27.6794 18.3287C27.258 18.5323 26.8093 18.6952 26.3335 18.8174C25.8577 18.9396 25.3683 19.0482 24.8653 19.1161C24.3622 19.184 23.8592 19.2383 23.3562 19.279C22.8532 19.3198 22.3637 19.3333 21.9151 19.3333C20.6916 19.3333 19.6719 19.2111 18.8562 18.9803C18.0541 18.7495 17.4016 18.4237 16.9122 18.0164C16.4227 17.6091 16.0828 17.1339 15.8789 16.5773C15.675 16.0206 15.5798 15.4368 15.5798 14.7987C15.5798 14.0927 15.7022 13.441 15.9333 12.8572C16.1644 12.2734 16.5179 11.7575 16.9937 11.3231C17.4695 10.8886 18.0541 10.5492 18.7747 10.3048C19.4952 10.0604 20.3381 9.93824 21.3169 9.93824H24.3079V9.50379C24.3079 9.24583 24.2807 9.00143 24.2263 8.77063C24.1719 8.53982 24.0631 8.33617 23.8864 8.15967C23.7097 7.98318 23.4786 7.84743 23.1659 7.73882C22.8532 7.6302 22.4453 7.57587 21.9423 7.57587C21.6704 7.57587 21.3577 7.58945 21.0179 7.61661C20.678 7.64376 20.3245 7.6845 19.9846 7.72523C19.6447 7.76596 19.3049 7.82026 18.9786 7.88814C18.6523 7.95602 18.3668 8.02391 18.1085 8.09179C17.8774 8.1461 17.7143 8.1461 17.6191 8.09179C17.5239 8.03748 17.4695 7.91531 17.4287 7.73882L16.9937 5.83807C16.9393 5.63442 16.9393 5.49864 16.9801 5.41718C17.0209 5.33572 17.1161 5.26784 17.2656 5.21353C18.0813 4.92842 18.9378 4.71118 19.8351 4.58899C20.7324 4.4668 21.6296 4.39893 22.5133 4.39893C24.4846 4.39893 25.9257 4.81981 26.8501 5.66157C27.7746 6.50333 28.2232 7.75239 28.2232 9.39517V17.2697H28.2504ZM24.3079 12.5721H22.1598C21.9015 12.5721 21.6296 12.5857 21.3441 12.6264C21.0586 12.6672 20.7867 12.7486 20.542 12.8844C20.2973 13.0202 20.0934 13.2102 19.9303 13.4682C19.7671 13.7261 19.6855 14.0655 19.6855 14.5C19.6855 15.1381 19.903 15.5726 20.3245 15.8305C20.7459 16.0885 21.3305 16.2107 22.0511 16.2107C22.1598 16.2107 22.3094 16.2107 22.4861 16.1971C22.6629 16.1835 22.8668 16.17 23.0707 16.1428C23.2746 16.1156 23.4922 16.0749 23.7097 16.0342C23.9272 15.9935 24.1311 15.9256 24.3079 15.8577V12.5721Z" fill="white"/>
<path d="M34.859 18.9395C34.7775 19.0074 34.6143 19.0345 34.356 19.0345H31.637C31.2428 19.0345 31.0388 18.858 31.0388 18.4914V5.29485C31.0388 4.95543 31.2428 4.77893 31.637 4.77893H34.356C34.6143 4.77893 34.7775 4.80608 34.859 4.87396C34.9406 4.94184 34.9814 5.07763 34.9814 5.29485V9.93809H40.066V5.29485C40.066 4.95543 40.2699 4.77893 40.6641 4.77893H43.3967C43.6551 4.77893 43.8182 4.80608 43.8861 4.87396C43.9541 4.94184 43.9949 5.07763 43.9949 5.29485V18.4914C43.9949 18.7222 43.9541 18.8716 43.8861 18.9395C43.8182 19.0074 43.6551 19.0345 43.3967 19.0345H40.6641C40.2563 19.0345 40.066 18.858 40.066 18.4914V13.0336H34.9814V18.4914C34.9814 18.7222 34.9406 18.8716 34.859 18.9395Z" fill="white"/>
<path d="M50.6859 18.4914C50.6859 18.7222 50.6451 18.8716 50.5771 18.9395C50.5091 19.0074 50.3324 19.0345 50.0605 19.0345H47.3687C46.9472 19.0345 46.7433 18.858 46.7433 18.4914V8.98772C46.7433 8.44465 46.7977 7.91516 46.92 7.39925C47.0424 6.88333 47.2599 6.4353 47.5726 6.04157C47.8853 5.64785 48.3339 5.34915 48.8913 5.11835C49.4487 4.88754 50.1828 4.77893 51.0937 4.77893H57.4834C57.7009 4.77893 57.8369 4.81965 57.9048 4.90111C57.9728 4.98257 58 5.14548 58 5.40344V7.35851C58 7.57574 57.9592 7.73866 57.8912 7.8337C57.8233 7.92873 57.6873 7.98302 57.4834 7.98302H52.2629C51.6239 7.98302 51.2025 8.10522 50.9985 8.36318C50.7946 8.62113 50.6859 8.97413 50.6859 9.44932V18.4914Z" fill="white"/>
</svg>
