<svg width="16" height="16" viewBox="0 0 16 16" fill="none" xmlns="http://www.w3.org/2000/svg">
<path d="M7.49423 0.385047C7.65342 -0.128348 8.34658 -0.128349 8.50577 0.385046L10.0297 5.29975C10.1009 5.52935 10.3051 5.68479 10.5355 5.68479H15.4672C15.9823 5.68479 16.1965 6.37556 15.7798 6.69286L11.79 9.73031C11.6036 9.87221 11.5256 10.1237 11.5968 10.3533L13.1207 15.268C13.2799 15.7814 12.7192 16.2083 12.3024 15.8911L8.31258 12.8536C8.12619 12.7117 7.8738 12.7117 7.68742 12.8536L3.69761 15.891C3.28083 16.2083 2.72006 15.7814 2.87926 15.268L4.40322 10.3533C4.47442 10.1237 4.39643 9.87221 4.21004 9.73031L0.220235 6.69286C-0.196544 6.37556 0.017652 5.68479 0.532819 5.68479H5.46449C5.69488 5.68479 5.89906 5.52935 5.97026 5.29975L7.49423 0.385047Z" fill="#FFCC00"/>
</svg>
